:SAMPLES-PER-SECOND 30
:FULLY-SPECIFIED
:DEGREES
98
root  -35.3199 35.1059 -1.38688 -42.4877 -85.897 36.9791
RightUpLeg  -47.3802 -3.80955 -8.20798
RightLeg  45.725 -11.3406 -12.5717
RightFoot  -5.88464 -0.30546 5.60059
RightToes  0.00048216 0.542163 -0.142577
Spine  30.9653 -3.40633 -3.5205
Spine1  4.81716 -4.00663 -3.08227
HEad  0.528829 6.73963 -1.6503
LeftShoulder1  7.05446 -11.178 -41.6843
LeftArm  -14.5111 -13.6937 -35.6667
LeftForeArm  62.9642 -71.6919 -26.3579
LeftHand  -0.25398 0.0180481 5.50724
RightShoulder  6.2557 10.3344 39.1122
RightArm  8.53942 -24.4387 30.4495
RightForeArm  3.71207 44.4741 10.7724
RightHand  -2.30187 5.92078 -23.6934
LeftUpLeg  -31.854 6.81204 -12.9115
LeftLeg  55.7796 4.45353 7.53176
LeftFoot  -18.0756 0.688624 9.81902
LeftToes  1.06248e-005 4.65856e-005 -8.185e-006
99
root  -37.1367 35.6926 -1.33682 -49.8344 -86.2248 44.3204
RightUpLeg  -46.7272 -4.76864 -5.84106
RightLeg  33.0563 -9.63077 -6.91479
RightFoot  -4.65697 -0.411897 6.52371
RightToes  0.00048216 0.542163 -0.142577
Spine  29.667 -2.64096 -3.41295
Spine1  5.08818 -3.22496 -1.96589
HEad  3.38958 5.9342 -2.3735
LeftShoulder1  6.65004 -10.5084 -41.1366
LeftArm  -12.8751 -14.6551 -38.1549
LeftForeArm  72.6729 -77.3712 -42.9636
LeftHand  -0.25398 0.0180481 5.50724
RightShoulder  6.03762 10.0437 38.5021
RightArm  10.16 -26.4251 30.8579
RightForeArm  0.744711 39.2968 9.11839
RightHand  -2.34583 6.23639 -23.4999
LeftUpLeg  -27.3535 6.58933 -12.3578
LeftLeg  54.0707 5.03523 7.91492
LeftFoot  -19.9818 0.746853 8.26559
LeftToes  1.06248e-005 4.65856e-005 -8.185e-006
100
root  -38.9921 36.3091 -1.2656 -58.9769 -86.2887 53.0787
RightUpLeg  -44.4492 -5.97644 -3.5347
RightLeg  24.2515 -6.74366 -3.51356
RightFoot  -4.45135 -0.405137 6.22363
RightToes  0.00048216 0.542163 -0.142577
Spine  27.9982 -1.88248 -2.74032
Spine1  5.7875 -2.33939 -1.18517
HEad  5.4903 4.62282 -2.92322
LeftShoulder1  6.60904 -10.2059 -41.8234
LeftArm  -11.7672 -13.5792 -38.609
LeftForeArm  80.9309 -79.3147 -56.9563
LeftHand  -0.25398 0.0180481 5.50724
RightShoulder  5.90876 9.84873 38.2008
RightArm  11.091 -28.7052 31.3592
RightForeArm  -0.236431 35.2426 7.94884
RightHand  -2.37814 6.38776 -23.5222
LeftUpLeg  -21.7845 5.78276 -12.2285
LeftLeg  51.3227 6.18366 8.68172
LeftFoot  -22.2006 0.803785 7.05483
LeftToes  1.06248e-005 4.65856e-005 -8.185e-006
101
root  -40.9552 36.8507 -1.1745 -64.4783 -86.251 57.8901
RightUpLeg  -40.62 -7.63677 -1.56913
RightLeg  18.0504 -5.14097 -1.99032
RightFoot  -4.11347 -0.383724 5.62351
RightToes  0.00048216 0.542163 -0.142577
Spine  25.95 -1.59125 -1.47299
Spine1  6.86726 -1.54032 -1.4225
HEad  6.786 3.52447 -3.54073
LeftShoulder1  7.03241 -10.6323 -43.2533
LeftArm  -11.4476 -10.8196 -36.5546
LeftForeArm  88.1914 -80.0536 -64.7316
LeftHand  -0.25398 0.0180481 5.50724
RightShoulder  5.83342 9.5868 38.499
RightArm  12.5757 -29.9493 31.5657
RightForeArm  0.896736 31.7665 6.94263
RightHand  -2.2054 5.92012 -22.7263
LeftUpLeg  -15.3798 5.32869 -12.0816
LeftLeg  47.8336 7.25226 8.9358
LeftFoot  -24.6819 0.811662 5.6616
LeftToes  1.06248e-005 4.65856e-005 -8.185e-006
102
root  -43.0059 37.2742 -1.10971 -64.7888 -86.1717 57.5535
RightUpLeg  -36.0213 -8.73679 -0.756592
RightLeg  14.941 -5.12509 -1.32938
RightFoot  -4.09159 -0.394407 5.7856
RightToes  0.00048216 0.542163 -0.142577
Spine  23.2501 -1.49093 -0.629799
Spine1  7.98606 -1.16534 -1.43575
HEad  8.31177 3.02787 -4.44594
LeftShoulder1  7.52343 -11.2632 -44.3642
LeftArm  -11.258 -6.98798 -33.7661
LeftForeArm  86.4156 -79.7303 -59.7008
LeftHand  -0.25398 0.0180481 5.50724
RightShoulder  5.74817 9.26404 38.9367
RightArm  15.5148 -30.0696 31.4857
RightForeArm  1.39497 28.3351 6.0558
RightHand  -1.89988 5.12623 -21.1121
LeftUpLeg  -9.07981 5.49063 -11.6725
LeftLeg  44.2142 7.73522 8.40307
LeftFoot  -26.0044 0.730093 4.44461
LeftToes  1.06248e-005 4.65856e-005 -8.185e-006
103
root  -45.0624 37.575 -1.10245 -52.8034 -85.3192 45.6327
RightUpLeg  -31.6816 -9.768 -1.12231
RightLeg  14.2278 -5.19058 -0.976613
RightFoot  -3.95238 -0.444019 6.3784
RightToes  0.00048216 0.542163 -0.142577
Spine  19.7224 -1.59527 -0.930387
Spine1  8.79276 -1.75511 0.0170763
HEad  10.2513 3.00742 -5.24997
LeftShoulder1  7.73108 -11.4277 -45.1192
LeftArm  -10.4695 -2.79249 -31.4607
LeftForeArm  70.7509 -76.9334 -42.1249
LeftHand  -0.25398 0.0180481 5.50724
RightShoulder  5.57125 8.92377 38.7516
RightArm  17.4241 -30.6408 31.7756
RightForeArm  1.14652 26.2836 5.58608
RightHand  -1.69988 4.57679 -19.9698
LeftUpLeg  -3.99618 5.58744 -11.0951
LeftLeg  41.1869 7.23011 7.13718
LeftFoot  -26.5813 0.667788 3.7976
LeftToes  1.06248e-005 4.65856e-005 -8.185e-006
104
root  -47.0826 37.7502 -1.10467 -33.7166 -83.6879 27.7124
RightUpLeg  -28.6955 -11.2687 -1.5235
RightLeg  13.832 -5.09051 -0.385961
RightFoot  -0.513204 -0.511569 5.47617
RightToes  0.00048216 0.542163 -0.142577
Spine  15.7418 -2.18824 -0.921561
Spine1  8.88013 -2.99131 2.03674
HEad  11.6452 3.06743 -5.54702
LeftShoulder1  7.70258 -11.0869 -46.0319
LeftArm  -9.24323 1.31934 -29.4666
LeftForeArm  54.8945 -71.1593 -27.0818
LeftHand  -0.25398 0.0180481 5.50724
RightShoulder  5.28242 8.51056 37.9241
RightArm  15.6682 -32.4207 32.5717
RightForeArm  1.42827 26.5825 5.64378
RightHand  -1.67774 4.4429 -19.9649
LeftUpLeg  -0.931856 5.67572 -9.58236
LeftLeg  39.6553 5.17631 4.97168
LeftFoot  -27.2407 0.551343 2.79649
LeftToes  1.06248e-005 4.65856e-005 -8.185e-006
105
root  -48.9438 37.8414 -1.05518 -15.7488 -82.5327 11.3497
RightUpLeg  -28.0603 -12.797 -0.429226
RightLeg  14.0796 -4.71515 0.469742
RightFoot  6.8147 -0.228752 1.86131
RightToes  0.00048216 0.542163 -0.142577
Spine  12.764 -2.91718 1.35325
Spine1  8.12551 -3.78392 2.97964
HEad  11.2644 2.92495 -5.70326
LeftShoulder1  7.72718 -10.792 -47.1522
LeftArm  -8.67097 4.92315 -27.7823
LeftForeArm  46.4156 -63.9198 -18.3561
LeftHand  -0.25398 0.0180481 5.50724
RightShoulder  5.04132 8.11169 37.3827
RightArm  12.1003 -33.8159 33.0284
RightForeArm  0.771595 28.0446 6.0208
RightHand  -1.69906 4.38755 -20.3188
LeftUpLeg  -0.433101 6.39141 -6.41526
LeftLeg  41.2536 1.95298 2.19043
LeftFoot  -25.8446 0.215105 0.410053
LeftToes  1.06248e-005 4.65856e-005 -8.185e-006
106
root  -50.5026 37.8919 -0.993348 -0.310623 -82.3927 -3.2285
RightUpLeg  -29.2937 -14.9129 2.68071
RightLeg  16.7437 -2.18433 0.728143
RightFoot  12.606 0.771031 -3.29664
RightToes  0.00048216 0.542163 -0.142577
Spine  12.1767 -3.16141 4.64021
Spine1  7.06001 -3.70665 3.06293
HEad  8.63158 2.65263 -6.05941
LeftShoulder1  8.03597 -11.0116 -48.3111
LeftArm  -9.76163 7.26692 -26.8497
LeftForeArm  43.6011 -55.3521 -12.5708
LeftHand  -0.25398 0.0180481 5.50724
RightShoulder  5.0828 8.0903 37.798
RightArm  9.64506 -32.5335 32.6386
RightForeArm  -2.16039 28.455 6.27441
RightHand  -1.62301 3.96175 -20.2786
LeftUpLeg  -2.55027 7.45962 -2.77192
LeftLeg  47.2893 -0.431846 -0.0673647
LeftFoot  -19.7872 -0.0834314 -2.9639
LeftToes  1.06248e-005 4.65856e-005 -8.185e-006
107
root  -51.7179 37.956 -0.990214 10.217 -82.6664 -13.9013
RightUpLeg  -30.0676 -16.1384 5.57763
RightLeg  20.7126 0.212186 0.066375
RightFoot  12.5479 1.64442 -7.40403
RightToes  0.00048216 0.542163 -0.142577
Spine  13.539 -2.96335 6.38441
Spine1  6.67813 -3.3712 3.78305
HEad  4.64605 2.43761 -5.91789
LeftShoulder1  8.51598 -11.5858 -49.262
LeftArm  -12.0657 7.87816 -26.883
LeftForeArm  41.5535 -44.8001 -8.25877
LeftHand  -0.25398 0.0180481 5.50724
RightShoulder  5.41454 8.60656 38.6378
RightArm  8.56034 -28.181 32.2056
RightForeArm  -5.69151 27.1182 6.13743
RightHand  -1.51267 3.36295 -20.1788
LeftUpLeg  -6.56511 7.9972 -0.218936
LeftLeg  56.0106 -0.785012 -0.687845
LeftFoot  -10.9635 0.0771278 -5.91203
LeftToes  1.06248e-005 4.65856e-005 -8.185e-006
108
root  -52.7258 38.0858 -1.02234 14.0644 -82.7 -18.082
RightUpLeg  -29.1839 -14.8292 5.76755
RightLeg  23.5362 -0.909828 -0.701589
RightFoot  9.00738 1.62856 -8.66988
RightToes  0.00048216 0.542163 -0.142577
Spine  14.7996 -2.72172 6.47378
Spine1  7.05016 -3.2586 4.93954
HEad  1.06134 2.22376 -4.67396
LeftShoulder1  8.8403 -12.0448 -49.6323
LeftArm  -13.3682 7.453 -27.4877
LeftForeArm  35.9473 -33.1879 -5.24196
LeftHand  -0.25398 0.0180481 5.50724
RightShoulder  5.72844 9.19966 39.0085
RightArm  7.91715 -22.6452 32.6618
RightForeArm  -7.69158 25.5291 5.8628
RightHand  -1.55882 3.44834 -20.5729
LeftUpLeg  -11.4807 7.74329 0.832901
LeftLeg  64.1991 -0.183048 0.271043
LeftFoot  -5.44005 0.383334 -6.95611
LeftToes  1.06248e-005 4.65856e-005 -8.185e-006
109
root  -53.7187 38.4395 -1.00852 13.6088 -82.4759 -17.4051
RightUpLeg  -27.3337 -14.7656 5.2919
RightLeg  23.3533 -1.33071 -0.77579
RightFoot  6.92798 1.31751 -7.88573
RightToes  0.00048216 0.542163 -0.142577
Spine  14.8983 -2.60209 6.48492
Spine1  7.12013 -3.14436 5.03057
HEad  -1.01983 1.64755 -3.18376
LeftShoulder1  8.87837 -12.1962 -49.3648
LeftArm  -12.3345 7.49295 -28.0777
LeftForeArm  27.2003 -22.8407 -3.71237
LeftHand  -0.25398 0.0180481 5.50724
RightShoulder  5.78673 9.34862 38.9404
RightArm  6.9741 -18.1697 33.6725
RightForeArm  -8.12719 25.6165 5.90566
RightHand  -1.77674 4.38264 -21.2236
LeftUpLeg  -16.3509 7.07193 0.883785
LeftLeg  69.2615 0.312156 1.73182
LeftFoot  -5.39819 0.361221 -6.28077
LeftToes  1.06248e-005 4.65856e-005 -8.185e-006
110
root  -54.699 38.9683 -0.947536 12.0968 -82.2912 -15.2959
RightUpLeg  -24.9406 -15.0624 4.35485
RightLeg  21.153 -1.45739 0.0744431
RightFoot  6.86011 1.20669 -7.22527
RightToes  0.00048216 0.542163 -0.142577
Spine  14.5562 -2.46864 6.96604
Spine1  6.33059 -2.72961 3.99452
HEad  -2.14837 0.58381 -2.68494
LeftShoulder1  8.77385 -12.1813 -48.8297
LeftArm  -12.0118 8.91271 -28.4409
LeftForeArm  22.0683 -15.7422 -4.12016
LeftHand  -0.25398 0.0180481 5.50724
RightShoulder  5.67203 9.12277 38.8416
RightArm  5.58622 -15.5315 34.4627
RightForeArm  -8.21305 27.7687 6.42149
RightHand  -1.94032 5.13472 -21.5309
LeftUpLeg  -20.5163 6.37687 0.656726
LeftLeg  70.3391 0.683775 3.01732
LeftFoot  -7.88161 0.217994 -5.71078
LeftToes  1.06248e-005 4.65856e-005 -8.185e-006
111
root  -55.6064 39.5125 -0.885625 8.52394 -82.3672 -11.1902
RightUpLeg  -22.028 -13.6889 2.43014
RightLeg  18.3485 -3.11742 1.23907
RightFoot  6.66819 1.19703 -7.24984
RightToes  0.00048216 0.542163 -0.142577
Spine  14.4281 -2.08846 7.00616
Spine1  5.2579 -2.11704 3.0315
HEad  -3.39627 -0.530772 -3.21989
LeftShoulder1  8.72802 -12.1944 -48.5329
LeftArm  -12.7227 11.369 -28.6178
LeftForeArm  22.5312 -12.4833 -4.57339
LeftHand  -0.25398 0.0180481 5.50724
RightShoulder  5.5542 8.92423 38.621
RightArm  4.19769 -14.0635 34.9802
RightForeArm  -8.39378 30.723 7.16787
RightHand  -1.93765 5.07346 -21.6215
LeftUpLeg  -23.4937 6.08561 0.246399
LeftLeg  67.5193 1.44755 4.58845
LeftFoot  -9.55024 0.149832 -5.91501
LeftToes  1.06248e-005 4.65856e-005 -8.185e-006
112
root  -56.4509 40.0162 -0.83331 1.40288 -82.6265 -3.5529
RightUpLeg  -18.9292 -11.0582 -0.0972911
RightLeg  14.9901 -5.75447 2.37831
RightFoot  6.31471 1.1476 -7.09719
RightToes  0.00048216 0.542163 -0.142577
Spine  14.1354 -1.4862 6.10855
Spine1  4.62125 -1.50664 2.46583
HEad  -5.10447 -1.34889 -3.78065
LeftShoulder1  8.75439 -12.2258 -48.5829
LeftArm  -12.923 13.9082 -28.5016
LeftForeArm  25.183 -11.7444 -4.43271
LeftHand  -0.25398 0.0180481 5.50724
RightShoulder  5.49432 8.90237 38.2338
RightArm  3.43458 -12.9107 35.4413
RightForeArm  -8.18804 33.0524 7.77668
RightHand  -1.88028 4.66641 -21.8104
LeftUpLeg  -25.0431 6.50104 -0.681632
LeftLeg  60.9081 3.1208 6.59917
LeftFoot  -10.0013 0.124582 -5.49463
LeftToes  1.06248e-005 4.65856e-005 -8.185e-006
